<?xml version="1.0" standalone="no"?>
<!DOCTYPE svg PUBLIC "-//W3C//DTD SVG 20010904//EN"
 "http://www.w3.org/TR/2001/REC-SVG-20010904/DTD/svg10.dtd">
<svg version="1.0" xmlns="http://www.w3.org/2000/svg"
 width="200.000000pt" height="200.000000pt" viewBox="0 0 200.000000 200.000000"
 preserveAspectRatio="xMidYMid meet">

<g transform="translate(0.000000,200.000000) scale(0.100000,-0.100000)"
fill="#000000" stroke="none">
<path d="M480 1582 c0 -7 68 -80 151 -163 94 -95 148 -157 145 -165 -7 -18
-46 -33 -65 -26 -7 3 -31 32 -52 65 -22 33 -39 56 -39 51 0 -5 9 -22 20 -39
25 -38 25 -62 0 -100 -11 -16 -27 -62 -36 -102 -15 -70 -31 -99 -110 -208 -34
-47 -36 -53 -31 -112 3 -44 13 -77 37 -117 17 -31 37 -56 43 -56 31 0 96 25
133 51 69 47 67 103 -3 152 -69 48 -82 99 -44 178 12 24 26 70 31 104 10 63
27 85 66 85 38 0 71 21 90 56 l18 34 -39 41 c-22 22 -85 80 -140 127 -55 48
-102 89 -105 92 -42 40 -70 61 -70 52z m65 -792 c0 -36 -29 -33 -32 3 -1 22 2
28 15 25 11 -2 17 -13 17 -28z"/>
<path d="M868 1513 c19 -9 64 -50 100 -92 126 -142 157 -169 213 -185 56 -17
154 -22 145 -7 -3 4 -1 23 4 42 17 58 4 86 -53 116 -44 23 -68 27 -157 31 -99
4 -107 6 -135 32 -46 43 -106 80 -129 80 -17 0 -14 -4 12 -17z"/>
<path d="M774 1454 c9 -66 43 -129 86 -159 43 -30 65 -33 57 -7 -59 176 -81
212 -129 212 -19 0 -20 -4 -14 -46z"/>
<path d="M1351 1451 c-1 -31 -3 -33 -28 -26 l-28 6 33 -31 c23 -24 32 -42 34
-69 l1 -36 4 33 c4 33 20 41 42 20 10 -11 11 -10 6 5 -4 9 -11 17 -16 17 -12
0 -32 39 -40 80 l-7 35 -1 -34z"/>
<path d="M1384 1268 c-3 -13 -13 -30 -21 -39 -12 -15 -10 -17 23 -22 20 -3 45
-14 55 -23 30 -27 35 -8 9 39 -41 74 -54 83 -66 45z"/>
<path d="M1110 1194 c0 -70 67 -131 210 -190 122 -49 170 -82 191 -128 l18
-40 10 27 c17 43 13 127 -8 173 -32 70 -105 110 -247 134 -56 10 -117 25 -135
34 -41 20 -39 21 -39 -10z"/>
<path d="M830 1150 c-53 -53 14 -109 78 -64 29 20 25 51 -8 72 -18 11 -21 12
-12 2 19 -22 14 -40 -12 -40 -30 0 -42 16 -26 35 18 22 3 18 -20 -5z"/>
<path d="M1203 982 c8 -37 -6 -78 -36 -111 -28 -29 -51 -38 -134 -51 -36 -6
-78 -17 -92 -25 -24 -13 -21 -14 39 -9 153 13 204 34 236 96 17 33 12 112 -8
124 -8 5 -9 -3 -5 -24z"/>
<path d="M1256 964 c-10 -40 10 -94 73 -193 67 -103 76 -132 66 -199 l-7 -45
36 29 c19 16 44 48 56 71 66 131 18 237 -148 325 l-70 37 -6 -25z"/>
<path d="M877 720 c-49 -13 -127 -53 -149 -77 -17 -18 -16 -19 27 -31 29 -8
64 -30 100 -62 60 -54 93 -63 133 -34 39 27 18 106 -29 103 -8 0 -5 -5 8 -11
25 -12 35 -31 27 -53 -19 -48 -96 -34 -102 18 -8 65 70 90 128 41 17 -15 45
-56 63 -92 17 -35 42 -72 56 -80 29 -20 95 -22 113 -4 11 11 10 12 -5 6 -9 -3
-33 -3 -52 0 -41 8 -58 36 -75 126 -13 71 -39 113 -81 132 -45 21 -115 29
-162 18z"/>
</g>
</svg>
